<svg id="logo" xmlns="http://www.w3.org/2000/svg" viewBox="0 0 174.1 84.4">
  <title>logo</title>
  <g style="isolation: isolate">
    <path d="M3.4,50.7V9.7A1.26,1.26,0,0,1,4.7,8.4h9.5a1.26,1.26,0,0,1,1.3,1.3V41.4H28.1a1.26,1.26,0,0,1,1.3,1.3v8A1.26,1.26,0,0,1,28.1,52H4.7A1.21,1.21,0,0,1,3.4,50.7Z" transform="translate(-2.3 -7.7)" fill="#fff"/>
    <path d="M30.5,30.2C30.5,13,40.2,7.8,50.2,7.8S70,13,70,30.2,60.3,52.7,50.3,52.7,30.5,47.4,30.5,30.2Zm27.1,0c0-9.5-3.5-11.3-7.3-11.3S43,20.7,43,30.2s3.5,11.4,7.3,11.4S57.6,39.7,57.6,30.2Z" transform="translate(-2.3 -7.7)" fill="#fff"/>
    <path d="M73.6,30.2c0-18.7,9.7-22.5,20.1-22.5,5.4,0,9,1.4,10.3,2.3,1,.7,1.7,1.4,1.7,2.3V20a1.24,1.24,0,0,1-1.3,1.4,4.25,4.25,0,0,1-1.8-.8,14.7,14.7,0,0,0-7.7-2.2c-6,0-9,3.3-9,12s3.1,11.9,9,11.9a15.7,15.7,0,0,0,7.7-2.2,4.25,4.25,0,0,1,1.8-.8,1.24,1.24,0,0,1,1.3,1.4v7.6c0,1-.7,1.6-1.7,2.3-1.4,1-4.9,2.3-10.3,2.3C83.3,52.7,73.6,48.9,73.6,30.2Z" transform="translate(-2.3 -7.7)" fill="#fff"/>
    <path d="M119.9,50.8a1.46,1.46,0,0,1-1.6,1.2h-9a1.16,1.16,0,0,1-1.2-1.2,9.38,9.38,0,0,1,.7-2.7L121.1,9.7c.3-1,.7-1.2,1.5-1.2h9.2a1.46,1.46,0,0,1,1.5,1.2l12.3,38.4a9.38,9.38,0,0,1,.7,2.7,1.16,1.16,0,0,1-1.2,1.2h-9a1.52,1.52,0,0,1-1.6-1.2l-1.3-4.7H121.1Zm9.8-17.7c-.4-1.4-2-7.5-2-8.2s-.1-.8-.4-.8-.4.2-.4.8-1.6,6.8-2,8.2L123.8,37h6.9Z" transform="translate(-2.3 -7.7)" fill="#fff"/>
    <path d="M149.7,50.7V9.7A1.26,1.26,0,0,1,151,8.4h9.5a1.26,1.26,0,0,1,1.3,1.3V41.4h12.6a1.26,1.26,0,0,1,1.3,1.3v8a1.26,1.26,0,0,1-1.3,1.3H151A1.26,1.26,0,0,1,149.7,50.7Z" transform="translate(-2.3 -7.7)" fill="#fff"/>
  </g>
  <g style="isolation: isolate">
    <path d="M2.3,91.1V64a.9.9,0,0,1,.9-.9H14.9c5.7,0,8.4,2.9,8.4,7.3a6.59,6.59,0,0,1-3.7,6.1c3.3,1.4,5.1,3.6,5.1,7.2,0,5-3.2,8.2-9.2,8.2H3.1C2.6,92,2.3,91.6,2.3,91.1ZM12.6,74c1.8,0,2.9-.4,2.9-2.7,0-1.9-1.4-2.4-3.4-2.4H10.3v5h2.3Zm.6,12.2c2.3,0,3.5-.7,3.5-3.3,0-2.2-1.3-3.1-3.5-3.1H10.3v6.4Z" transform="translate(-2.3 -7.7)" fill="#fff"/>
    <path d="M47.5,84l2.8,5.4a1.72,1.72,0,0,0,1.2,1,.7.7,0,0,1,.6.8.74.74,0,0,1-.8.8H44.6c-1.9,0-2.4-1-3.4-3l-3.3-6.6a1.38,1.38,0,0,0-1.3-.9h-.9v9.6a.9.9,0,0,1-.9.9H28.5a.9.9,0,0,1-.9-.9V64a.9.9,0,0,1,.9-.9H41.4c5,0,8.4,3.9,8.4,9.2,0,4.3-2.3,7.3-5.5,8.1C45.8,81.1,46.4,82.1,47.5,84ZM35.7,75.7h2.6c2.3,0,3.5-.9,3.5-3.1s-1.2-3.1-3.5-3.1H35.6v6.2Z" transform="translate(-2.3 -7.7)" fill="#fff"/>
    <path d="M54.1,91.1V64a.9.9,0,0,1,.9-.9H70.5a.9.9,0,0,1,.9.9v5.3a.9.9,0,0,1-.9.9H62.1v3.2h6.5a.9.9,0,0,1,.9.9v5.3a.9.9,0,0,1-.9.9H62.1V85h8.5a.9.9,0,0,1,.9.9v5.3a.9.9,0,0,1-.9.9H55A1.06,1.06,0,0,1,54.1,91.1Z" transform="translate(-2.3 -7.7)" fill="#fff"/>
    <path d="M92.4,68l1.9,8.4a18.06,18.06,0,0,1,.5,3.2c0,.4,0,.5.2.5s.2-.1.2-.5.3-2,.4-3.2L97.7,64a.89.89,0,0,1,1-.8h6a.86.86,0,0,1,.8.8,11.27,11.27,0,0,1-.3,1.8l-4.9,25.4a.88.88,0,0,1-.9.8H93a.88.88,0,0,1-.9-.8l-1.7-8.5c-.3-1.4-.7-4.3-.7-4.7s0-.5-.2-.5-.2.1-.2.5-.5,3.3-.7,4.7L87,91.2a.88.88,0,0,1-.9.8H79.7a.88.88,0,0,1-.9-.8L73.9,65.8a11.27,11.27,0,0,1-.3-1.8.86.86,0,0,1,.8-.8h6a.89.89,0,0,1,1,.8l2.1,12.4c.2,1.3.5,2.7.5,3.2s0,.5.2.5.2-.1.2-.5a19.5,19.5,0,0,1,.5-3.2L86.8,68a1,1,0,0,1,1-.8h3.6A.89.89,0,0,1,92.4,68Z" transform="translate(-2.3 -7.7)" fill="#fff"/>
    <path d="M108.6,91.1V64a.9.9,0,0,1,.9-.9H125a.9.9,0,0,1,.9.9v5.3a.9.9,0,0,1-.9.9h-8.4v3.2h6.5a.9.9,0,0,1,.9.9v5.3a.9.9,0,0,1-.9.9h-6.5V85h8.5a.9.9,0,0,1,.9.9v5.3a.9.9,0,0,1-.9.9H109.4A1.08,1.08,0,0,1,108.6,91.1Z" transform="translate(-2.3 -7.7)" fill="#fff"/>
    <path d="M149.4,84l2.8,5.4a1.72,1.72,0,0,0,1.2,1,.7.7,0,0,1,.6.8.74.74,0,0,1-.8.8h-6.7c-1.9,0-2.4-1-3.4-3l-3.3-6.6a1.38,1.38,0,0,0-1.3-.9h-.9v9.6a.9.9,0,0,1-.9.9h-6.3a.9.9,0,0,1-.9-.9V64a.9.9,0,0,1,.9-.9h12.9c5,0,8.4,3.9,8.4,9.2,0,4.3-2.3,7.3-5.5,8.1C147.7,81.1,148.3,82.1,149.4,84Zm-11.8-8.3h2.6c2.3,0,3.5-.9,3.5-3.1s-1.2-3.1-3.5-3.1h-2.7v6.2Z" transform="translate(-2.3 -7.7)" fill="#fff"/>
    <path d="M160.1,91.1V81.6l-7.6-16A3.68,3.68,0,0,1,152,64a.79.79,0,0,1,.8-.8h6.1a1.21,1.21,0,0,1,1.3.8l2.4,5.9a28.53,28.53,0,0,1,1.3,3.6c0,.4.1.5.3.5s.3-.1.3-.5a20.49,20.49,0,0,1,1.3-3.6l2.4-5.9c.2-.6.6-.8,1.3-.8h6.1a.79.79,0,0,1,.8.8,3.68,3.68,0,0,1-.5,1.6l-7.6,16v9.5a.9.9,0,0,1-.9.9h-6.3A.87.87,0,0,1,160.1,91.1Z" transform="translate(-2.3 -7.7)" fill="#fff"/>
  </g>
</svg>
